<?xml version="1.0" encoding="UTF-8"?>
<svg xmlns="http://www.w3.org/2000/svg" version="1.1" xmlns:xlink="http://www.w3.org/1999/xlink" viewBox="0 0 91.9 37.1">
  <defs>
    <style>
      .cls-1 {
        fill: url(#Dégradé_sans_nom_11);
      }

      .cls-2 {
        fill: #333;
      }

      .cls-3 {
        fill: #a5a5a5;
      }

      .cls-4 {
        fill: #1335cd;
      }
    </style>
    <linearGradient id="Dégradé_sans_nom_11" data-name="Dégradé sans nom 11" x1="19.6" y1="13" x2="26.8" y2="8.2" gradientUnits="userSpaceOnUse">
      <stop offset="0" stop-color="#f1af00"/>
      <stop offset="1" stop-color="#e92203"/>
    </linearGradient>
  </defs>
  <!-- Generator: Adobe Illustrator 28.7.4, SVG Export Plug-In . SVG Version: 1.2.0 Build 166)  -->
  <g>
    <g id="Calque_1">
      <g>
        <path class="cls-3" d="M40.6,14.9h1.6l-4.6,11h-.4l-4.7-11h1.6l3.3,7.7,3.3-7.7Z"/>
        <path class="cls-3" d="M48.1,14.8c1.7,0,3.1.5,4.2,1.6,1.1,1.1,1.7,2.4,1.7,4s-.6,2.9-1.7,4-2.6,1.6-4.3,1.6-3-.5-4.1-1.6c-1.1-1.1-1.6-2.4-1.6-4s.6-3,1.7-4.1c1.1-1.1,2.5-1.6,4.2-1.6ZM48.2,16.3c-1.3,0-2.3.4-3.1,1.2-.8.8-1.2,1.8-1.2,3s.4,2.2,1.2,2.9c.8.8,1.8,1.2,3,1.2s2.2-.4,3.1-1.2,1.2-1.8,1.2-3-.4-2.1-1.2-2.9c-.8-.8-1.8-1.2-3-1.2Z"/>
        <path class="cls-3" d="M62.6,14.9h1.9l-4.4,5.3,4.7,5.7h-1.9l-3.7-4.5-3.8,4.5h-1.9l4.7-5.7-4.4-5.3h1.9l3.4,4.2,3.4-4.2Z"/>
        <path class="cls-3" d="M73.7,14.9h1.6v6.2c0,.8,0,1.5-.2,1.9-.1.4-.3.8-.5,1.1-.2.3-.4.5-.7.8-.9.7-2,1.1-3.4,1.1s-2.6-.4-3.4-1.1c-.3-.2-.5-.5-.7-.8-.2-.3-.3-.6-.4-1-.1-.4-.2-1.1-.2-1.9v-6.2h1.6v6.2c0,1,.1,1.7.4,2.1.2.4.6.7,1.1,1,.5.2,1,.4,1.7.4.9,0,1.7-.2,2.3-.7.3-.3.5-.6.7-.9.1-.4.2-1,.2-1.8v-6.2Z"/>
        <path class="cls-3" d="M86.1,14.9h1.5v10.9h-1.6v-8.5l-3.4,4.2h-.3l-3.4-4.2v8.5h-1.6v-10.9h1.5l3.6,4.5,3.6-4.5Z"/>
      </g>
      <path class="cls-4" d="M14,17.4c1.3,2,2.4,3.7,3.5,5.4.2.3.2,1,0,1.3-.7,1.3-1.6,2.6-2.4,3.8-.6,1-1.3.9-1.9,0-.8-1.3-1.7-2.5-2.5-3.8-.2-.3-.2-1,0-1.3,1-1.8,2.2-3.5,3.4-5.4Z"/>
      <path class="cls-4" d="M23.3,15.2c-1.6,2.6-3.1,4.9-4.8,7.5-1.3-2.1-2.5-3.9-3.6-5.8-.1-.2,0-.7.2-1q1.7-3.1,5.1-1.9c1,.4,1.9.7,3.2,1.2Z"/>
      <path class="cls-4" d="M8.6,8.9c1.7,2.6,3.2,4.9,4.9,7.5-2.3.6-4.3,1.2-6.5,1.6-.8.2-2.3-2.9-1.8-3.6,1.1-1.8,2.2-3.5,3.4-5.5Z"/>
      <path class="cls-1" d="M20.2,8.4c2.3,0,4.2,0,6.1,0,.8,0,1,.4.7,1-.9,1.5-1.9,3-3.1,4.8-1.3-2-2.3-3.8-3.7-5.9Z"/>
      <path class="cls-4" d="M4.2,14.3c-1.1-1.7-2.1-3.1-3-4.6-.5-.8-.2-1.3.8-1.3,1.8,0,3.6,0,5.8,0-1.2,2-2.3,3.8-3.6,5.9Z"/>
      <path class="cls-4" d="M7.2,18.9c2-.5,3.7-1,5.3-1.4,0,.1.1.2.2.3-1,1.5-1.9,3.1-3.1,4.9-.9-1.4-1.6-2.5-2.5-3.8Z"/>
      <path class="cls-4" d="M17.4,12.2c.7-1.2,1.3-2.1,2.1-3.3,1.1,1.7,2.1,3.3,3.1,4.9l-.2.3c-1.6-.6-3.2-1.2-5-1.9Z"/>
      <g>
        <path class="cls-2" d="M40.1,14.5h1.6l-4.6,11h-.4l-4.7-11h1.6l3.3,7.7,3.3-7.7Z"/>
        <path class="cls-2" d="M47.6,14.3c1.7,0,3.1.5,4.2,1.6,1.1,1.1,1.7,2.4,1.7,4s-.6,2.9-1.7,4-2.6,1.6-4.3,1.6-3-.5-4.1-1.6c-1.1-1.1-1.6-2.4-1.6-4s.6-3,1.7-4.1c1.1-1.1,2.5-1.6,4.2-1.6ZM47.6,15.8c-1.3,0-2.3.4-3.1,1.2-.8.8-1.2,1.8-1.2,3s.4,2.2,1.2,2.9c.8.8,1.8,1.2,3,1.2s2.2-.4,3.1-1.2,1.2-1.8,1.2-3-.4-2.1-1.2-2.9c-.8-.8-1.8-1.2-3-1.2Z"/>
        <path class="cls-2" d="M62,14.5h1.9l-4.4,5.3,4.7,5.7h-1.9l-3.7-4.5-3.8,4.5h-1.9l4.7-5.7-4.4-5.3h1.9l3.4,4.2,3.4-4.2Z"/>
        <path class="cls-2" d="M73.1,14.5h1.6v6.2c0,.8,0,1.5-.2,1.9-.1.4-.3.8-.5,1.1-.2.3-.4.5-.7.8-.9.7-2,1.1-3.4,1.1s-2.6-.4-3.4-1.1c-.3-.2-.5-.5-.7-.8-.2-.3-.3-.6-.4-1-.1-.4-.2-1.1-.2-1.9v-6.2h1.6v6.2c0,1,.1,1.7.4,2.1.2.4.6.7,1.1,1,.5.2,1,.4,1.7.4.9,0,1.7-.2,2.3-.7.3-.3.5-.6.7-.9.1-.4.2-1,.2-1.8v-6.2Z"/>
        <path class="cls-2" d="M85.5,14.5h1.5v10.9h-1.6v-8.5l-3.4,4.2h-.3l-3.4-4.2v8.5h-1.6v-10.9h1.5l3.6,4.5,3.6-4.5Z"/>
      </g>
      <image width="1507" height="70" transform="translate(-509.3 -139.3)" xlink:href="logo_voxum-1.png"/>
    </g>
  </g>
</svg>